<svg id="Capa_1" enable-background="new 0 0 512 512" height="512" viewBox="0 0 512 512" width="512" xmlns="http://www.w3.org/2000/svg" xmlns:xlink="http://www.w3.org/1999/xlink"><linearGradient id="SVGID_1_" gradientUnits="userSpaceOnUse" x1="256" x2="256" y1="512" y2="0"><stop offset="0" stop-color="#fd3a84"/><stop offset="1" stop-color="#ffa68d"/></linearGradient><linearGradient id="SVGID_2_" gradientUnits="userSpaceOnUse" x1="271" x2="271" y1="512" y2="210"><stop offset="0" stop-color="#ffc2cc"/><stop offset="1" stop-color="#fff2f4"/></linearGradient><g id="Cloud_Computing_10_"><g><g><path d="m406 422h-45l-120 84 150 6c15.605 0 30-12.568 30-30v-45c0-8.284-6.716-15-15-15zm15-302c0-66.167-53.818-120-120-120-31.67 0-61.934 12.788-84.492 35.405-68.262-20.713-137.813 23.072-152.11 88.843-37.294 11.397-64.398 45.908-64.398 85.752 0 49.629 41.371 90 91 90h75c8.291 0 15-6.709 15-15v-45h150v45c0 8.291 6.709 15 15 15h75c49.629 0 91-40.371 91-90s-41.371-90-91-90z" fill="url(#SVGID_1_)"/></g></g><g><g><path d="m361 482v-257c0-8.401-6.599-15-15-15h-180c-8.401 0-15 6.599-15 15v242c0 24.899 20.099 45 45 45h195c-16.5 0-30-13.5-30-30z" fill="url(#SVGID_2_)"/></g></g></g></svg>